<svg style="display: none;" aria-hidden="true" xmlns="http://www.w3.org/2000/svg" xmlns:xlink="http://www.w3.org/1999/xlink"><symbol viewBox="0 0 20 19" fill="none" id="svg-arrow-left"><g opacity=".2" stroke="#072D4B" stroke-width="2" stroke-linecap="round" stroke-linejoin="round"><path d="M18 10L4 10M10 4L4 10 10 16"/></g></symbol><symbol viewBox="0 0 20 19" fill="none" id="svg-arrow-right"><path d="M4.16663 9.5H15.8333M10 3.95833L15.8333 9.5 10 15.0417" stroke="#072D4B" stroke-width="2" stroke-linecap="round" stroke-linejoin="round"/></symbol><symbol viewBox="0 0 24 24" fill="none" id="svg-award"><path d="M12 15C15.866 15 19 11.866 19 8C19 4.13401 15.866 1 12 1C8.13401 1 5 4.13401 5 8C5 11.866 8.13401 15 12 15Z" stroke="#072D4B" stroke-width="2" stroke-linecap="round" stroke-linejoin="round"/><path d="M8.21 13.89L7 23L12 20L17 23L15.79 13.88" stroke="#072D4B" stroke-width="2" stroke-linecap="round" stroke-linejoin="round"/></symbol><symbol viewBox="0 0 24 24" fill="none" id="svg-bell"><path d="M18 8C18 6.4087 17.3679 4.88258 16.2426 3.75736 15.1174 2.63214 13.5913 2 12 2 10.4087 2 8.88258 2.63214 7.75736 3.75736 6.63214 4.88258 6 6.4087 6 8 6 15 3 17 3 17H21C21 17 18 15 18 8zM13.73 21C13.5542 21.3031 13.3018 21.5547 12.9982 21.7295 12.6946 21.9044 12.3504 21.9965 12 21.9965 11.6496 21.9965 11.3054 21.9044 11.0018 21.7295 10.6982 21.5547 10.4458 21.3031 10.27 21" stroke="#072D4B" stroke-width="2" stroke-linecap="round" stroke-linejoin="round"/></symbol><symbol viewBox="0 0 30 30" fill="none" id="svg-briefcase"><g filter="url(#efilter0_d_4_115)" stroke="#072D4B" stroke-width="2" stroke-linecap="round" stroke-linejoin="round"><path d="M23 7H7C5.89543 7 5 7.89543 5 9V19C5 20.1046 5.89543 21 7 21H23C24.1046 21 25 20.1046 25 19V9C25 7.89543 24.1046 7 23 7Z"/><path d="M19 21V5C19 4.46957 18.7893 3.96086 18.4142 3.58579C18.0391 3.21071 17.5304 3 17 3H13C12.4696 3 11.9609 3.21071 11.5858 3.58579C11.2107 3.96086 11 4.46957 11 5V21"/></g><defs><filter id="efilter0_d_4_115" x="-1" y="0" width="32" height="32" filterUnits="userSpaceOnUse" color-interpolation-filters="sRGB"><feFlood flood-opacity="0" result="BackgroundImageFix"/><feColorMatrix in="SourceAlpha" values="0 0 0 0 0 0 0 0 0 0 0 0 0 0 0 0 0 0 127 0" result="hardAlpha"/><feOffset dy="4"/><feGaussianBlur stdDeviation="2"/><feComposite in2="hardAlpha" operator="out"/><feColorMatrix values="0 0 0 0 0 0 0 0 0 0 0 0 0 0 0 0 0 0 0.25 0"/><feBlend in2="BackgroundImageFix" result="effect1_dropShadow_4_115"/><feBlend in="SourceGraphic" in2="effect1_dropShadow_4_115" result="shape"/></filter></defs></symbol><symbol viewBox="0 0 24 24" fill="none" id="svg-cardio"><path d="M22 12H18L15 21L9 3L6 12H2" stroke="#072D4B" stroke-width="2" stroke-linecap="round" stroke-linejoin="round"/></symbol><symbol viewBox="0 0 24 24" fill="none" id="svg-covid19"><path d="M12 22C12 22 20 18 20 12V5L12 2L4 5V12C4 18 12 22 12 22Z" stroke="#072D4B" stroke-width="2" stroke-linecap="round" stroke-linejoin="round"/><path d="M12 9V15M15 12L9 12" stroke="#072D4B" stroke-width="2"/></symbol><symbol viewBox="0 0 18 18" fill="none" id="svg-crosshair"><path d="M9 16.5C13.1421 16.5 16.5 13.1421 16.5 9 16.5 4.85786 13.1421 1.5 9 1.5 4.85786 1.5 1.5 4.85786 1.5 9 1.5 13.1421 4.85786 16.5 9 16.5zM16.5 9H13.5M4.5 9H1.5M9 4.5V1.5M9 16.5V13.5" stroke="#072D4B" stroke-width="2" stroke-linecap="round" stroke-linejoin="round"/></symbol><symbol viewBox="0 0 24 24" fill="none" id="svg-ellipsis"><path d="M6 10C4.9 10 4 10.9 4 12C4 13.1 4.9 14 6 14C7.1 14 8 13.1 8 12C8 10.9 7.1 10 6 10ZM18 10C16.9 10 16 10.9 16 12C16 13.1 16.9 14 18 14C19.1 14 20 13.1 20 12C20 10.9 19.1 10 18 10ZM12 10C10.9 10 10 10.9 10 12C10 13.1 10.9 14 12 14C13.1 14 14 13.1 14 12C14 10.9 13.1 10 12 10Z" fill="#072D4B"/></symbol><symbol viewBox="0 0 24 24" fill="none" id="svg-feather"><path d="M20.24 12.24C21.3658 11.1141 21.9983 9.58716 21.9983 7.99497 21.9983 6.40279 21.3658 4.87582 20.24 3.74997 19.1142 2.62413 17.5872 1.99164 15.995 1.99164 14.4028 1.99164 12.8758 2.62413 11.75 3.74997L5 10.5V19H13.5L20.24 12.24zM16 8L2 22M17.5 15H9" stroke="#072D4B" stroke-width="2" stroke-linecap="round" stroke-linejoin="round"/></symbol><symbol viewBox="0 0 24 24" fill="none" id="svg-file-text"><path d="M14 2H6C5.46957 2 4.96086 2.21071 4.58579 2.58579C4.21071 2.96086 4 3.46957 4 4V20C4 20.5304 4.21071 21.0391 4.58579 21.4142C4.96086 21.7893 5.46957 22 6 22H18C18.5304 22 19.0391 21.7893 19.4142 21.4142C19.7893 21.0391 20 20.5304 20 20V8L14 2Z" stroke="#000" stroke-width="2" stroke-linecap="round" stroke-linejoin="round"/><path d="M14 2V8H20M16 13H8M16 17H8M10 9H9 8" stroke="#000" stroke-width="2" stroke-linecap="round" stroke-linejoin="round"/></symbol><symbol viewBox="0 0 24 24" fill="none" id="svg-gift"><path d="M20 12V22H4V12M22 7H2V12H22V7zM12 22V7M12 7H7.5C6.83696 7 6.20107 6.73661 5.73223 6.26777 5.26339 5.79893 5 5.16304 5 4.5 5 3.83696 5.26339 3.20107 5.73223 2.73223 6.20107 2.26339 6.83696 2 7.5 2 11 2 12 7 12 7zM12 7H16.5C17.163 7 17.7989 6.73661 18.2678 6.26777 18.7366 5.79893 19 5.16304 19 4.5 19 3.83696 18.7366 3.20107 18.2678 2.73223 17.7989 2.26339 17.163 2 16.5 2 13 2 12 7 12 7z" stroke="#fff" stroke-width="2" stroke-linecap="round" stroke-linejoin="round"/></symbol><symbol viewBox="0 0 30 31" fill="none" id="svg-globe"><g filter="url(#mfilter0_d_4_118)" stroke="#072D4B" stroke-width="2" stroke-linecap="round" stroke-linejoin="round"><path d="M15 22C20.5228 22 25 17.5228 25 12 25 6.47715 20.5228 2 15 2 9.47715 2 5 6.47715 5 12 5 17.5228 9.47715 22 15 22zM5 12H25"/><path d="M15 2C17.5013 4.73835 18.9228 8.29203 19 12C18.9228 15.708 17.5013 19.2616 15 22C12.4987 19.2616 11.0772 15.708 11 12C11.0772 8.29203 12.4987 4.73835 15 2V2Z"/></g><defs><filter id="mfilter0_d_4_118" x="-1" y="0" width="32" height="32" filterUnits="userSpaceOnUse" color-interpolation-filters="sRGB"><feFlood flood-opacity="0" result="BackgroundImageFix"/><feColorMatrix in="SourceAlpha" values="0 0 0 0 0 0 0 0 0 0 0 0 0 0 0 0 0 0 127 0" result="hardAlpha"/><feOffset dy="4"/><feGaussianBlur stdDeviation="2"/><feComposite in2="hardAlpha" operator="out"/><feColorMatrix values="0 0 0 0 0 0 0 0 0 0 0 0 0 0 0 0 0 0 0.25 0"/><feBlend in2="BackgroundImageFix" result="effect1_dropShadow_4_118"/><feBlend in="SourceGraphic" in2="effect1_dropShadow_4_118" result="shape"/></filter></defs></symbol><symbol id="svg-home" viewBox="0 0 32 32"><defs><style>.cls-1{fill:#101820}</style></defs><path class="ncls-1" d="M30 15a1 1 0 01-.58-.19L16 5.23 2.58 14.81a1 1 0 01-1.16-1.62l14-10a1 1 0 011.16 0l14 10A1 1 0 0130 15zM5 9A1 1 0 014 8V4A1 1 0 015 3H9A1 1 0 019 5H6V8A1 1 0 015 9z"/><path class="ncls-1" d="M25,29H20a1,1,0,0,1-1-1V21H13v7a1,1,0,0,1-1,1H7a3,3,0,0,1-3-3V16a1,1,0,0,1,2,0V26a1,1,0,0,0,1,1h4V20a1,1,0,0,1,1-1h8a1,1,0,0,1,1,1v7h4a1,1,0,0,0,1-1V16a1,1,0,0,1,2,0V26A3,3,0,0,1,25,29Z"/></symbol><symbol viewBox="0 0 24 24" fill="none" id="svg-message-circle"><path d="M21 11.5C21.0034 12.8199 20.6951 14.1219 20.1 15.3C19.3944 16.7117 18.3098 17.8992 16.9674 18.7293C15.6251 19.5594 14.0782 19.9994 12.5 20C11.1801 20.0034 9.87812 19.6951 8.7 19.1L3 21L4.9 15.3C4.30493 14.1219 3.99656 12.8199 4 11.5C4.00061 9.92176 4.44061 8.37485 5.27072 7.03255C6.10083 5.69025 7.28825 4.60557 8.7 3.9C9.87812 3.30493 11.1801 2.99656 12.5 3H13C15.0843 3.11499 17.053 3.99476 18.5291 5.47086C20.0052 6.94695 20.885 8.91565 21 11V11.5Z" stroke="#072D4B" stroke-width="2" stroke-linecap="round" stroke-linejoin="round"/></symbol><symbol viewBox="0 0 24 24" fill="none" id="svg-play-circle"><path d="M12 22C17.5228 22 22 17.5228 22 12C22 6.47715 17.5228 2 12 2C6.47715 2 2 6.47715 2 12C2 17.5228 6.47715 22 12 22Z" stroke="#072D4B" stroke-width="2" stroke-linecap="round" stroke-linejoin="round"/><path d="M10 8L16 12L10 16V8Z" stroke="#072D4B" stroke-width="2" stroke-linecap="round" stroke-linejoin="round"/></symbol><symbol viewBox="0 0 17 16" fill="none" id="svg-pocket"><g clip-path="url(#qclip0_7_142)" stroke="#0768B5" stroke-width="2" stroke-linecap="round" stroke-linejoin="round"><path d="M2.98943 2H13.8677C14.2284 2 14.5742 2.14048 14.8293 2.39052C15.0843 2.64057 15.2275 2.97971 15.2275 3.33333V7.33333C15.2275 9.10144 14.5112 10.7971 13.2362 12.0474C11.9611 13.2976 10.2318 14 8.42858 14C7.53573 14 6.65162 13.8276 5.82674 13.4925C5.00185 13.1575 4.25234 12.6664 3.621 12.0474C2.34595 10.7971 1.62964 9.10144 1.62964 7.33333V3.33333C1.62964 2.97971 1.7729 2.64057 2.02791 2.39052C2.28292 2.14048 2.62879 2 2.98943 2V2Z"/><path d="M5.70898 6.66667L8.42856 9.33333L11.1481 6.66667"/></g><defs><clipPath id="qclip0_7_142"><path fill="#fff" transform="translate(.27)" d="M0 0H16.317V16H0z"/></clipPath></defs></symbol><symbol viewBox="0 0 18 18" fill="none" id="svg-search"><path d="M8.25 14.25C11.5637 14.25 14.25 11.5637 14.25 8.25 14.25 4.93629 11.5637 2.25 8.25 2.25 4.93629 2.25 2.25 4.93629 2.25 8.25 2.25 11.5637 4.93629 14.25 8.25 14.25zM15.75 15.75L12.4875 12.4875" stroke="#072D4B" stroke-width="2" stroke-linecap="round" stroke-linejoin="round"/></symbol><symbol viewBox="0 0 24 24" fill="none" id="svg-settings"><path d="M12 15C13.6569 15 15 13.6569 15 12C15 10.3431 13.6569 9 12 9C10.3431 9 9 10.3431 9 12C9 13.6569 10.3431 15 12 15Z" stroke="#072D4B" stroke-width="2" stroke-linecap="round" stroke-linejoin="round"/><path d="M19.4 15C19.2669 15.3016 19.2272 15.6362 19.286 15.9606C19.3448 16.285 19.4995 16.5843 19.73 16.82L19.79 16.88C19.976 17.0657 20.1235 17.2863 20.2241 17.5291C20.3248 17.7719 20.3766 18.0322 20.3766 18.295C20.3766 18.5578 20.3248 18.8181 20.2241 19.0609C20.1235 19.3037 19.976 19.5243 19.79 19.71C19.6043 19.896 19.3837 20.0435 19.1409 20.1441C18.8981 20.2448 18.6378 20.2966 18.375 20.2966C18.1122 20.2966 17.8519 20.2448 17.6091 20.1441C17.3663 20.0435 17.1457 19.896 16.96 19.71L16.9 19.65C16.6643 19.4195 16.365 19.2648 16.0406 19.206C15.7162 19.1472 15.3816 19.1869 15.08 19.32C14.7842 19.4468 14.532 19.6572 14.3543 19.9255C14.1766 20.1938 14.0813 20.5082 14.08 20.83V21C14.08 21.5304 13.8693 22.0391 13.4942 22.4142C13.1191 22.7893 12.6104 23 12.08 23C11.5496 23 11.0409 22.7893 10.6658 22.4142C10.2907 22.0391 10.08 21.5304 10.08 21V20.91C10.0723 20.579 9.96512 20.258 9.77251 19.9887C9.5799 19.7194 9.31074 19.5143 9 19.4C8.69838 19.2669 8.36381 19.2272 8.03941 19.286C7.71502 19.3448 7.41568 19.4995 7.18 19.73L7.12 19.79C6.93425 19.976 6.71368 20.1235 6.47088 20.2241C6.22808 20.3248 5.96783 20.3766 5.705 20.3766C5.44217 20.3766 5.18192 20.3248 4.93912 20.2241C4.69632 20.1235 4.47575 19.976 4.29 19.79C4.10405 19.6043 3.95653 19.3837 3.85588 19.1409C3.75523 18.8981 3.70343 18.6378 3.70343 18.375C3.70343 18.1122 3.75523 17.8519 3.85588 17.6091C3.95653 17.3663 4.10405 17.1457 4.29 16.96L4.35 16.9C4.58054 16.6643 4.73519 16.365 4.794 16.0406C4.85282 15.7162 4.81312 15.3816 4.68 15.08C4.55324 14.7842 4.34276 14.532 4.07447 14.3543C3.80618 14.1766 3.49179 14.0813 3.17 14.08H3C2.46957 14.08 1.96086 13.8693 1.58579 13.4942C1.21071 13.1191 1 12.6104 1 12.08C1 11.5496 1.21071 11.0409 1.58579 10.6658C1.96086 10.2907 2.46957 10.08 3 10.08H3.09C3.42099 10.0723 3.742 9.96512 4.0113 9.77251C4.28059 9.5799 4.48572 9.31074 4.6 9C4.73312 8.69838 4.77282 8.36381 4.714 8.03941C4.65519 7.71502 4.50054 7.41568 4.27 7.18L4.21 7.12C4.02405 6.93425 3.87653 6.71368 3.77588 6.47088C3.67523 6.22808 3.62343 5.96783 3.62343 5.705C3.62343 5.44217 3.67523 5.18192 3.77588 4.93912C3.87653 4.69632 4.02405 4.47575 4.21 4.29C4.39575 4.10405 4.61632 3.95653 4.85912 3.85588C5.10192 3.75523 5.36217 3.70343 5.625 3.70343C5.88783 3.70343 6.14808 3.75523 6.39088 3.85588C6.63368 3.95653 6.85425 4.10405 7.04 4.29L7.1 4.35C7.33568 4.58054 7.63502 4.73519 7.95941 4.794C8.28381 4.85282 8.61838 4.81312 8.92 4.68H9C9.29577 4.55324 9.54802 4.34276 9.72569 4.07447C9.90337 3.80618 9.99872 3.49179 10 3.17V3C10 2.46957 10.2107 1.96086 10.5858 1.58579C10.9609 1.21071 11.4696 1 12 1C12.5304 1 13.0391 1.21071 13.4142 1.58579C13.7893 1.96086 14 2.46957 14 3V3.09C14.0013 3.41179 14.0966 3.72618 14.2743 3.99447C14.452 4.26276 14.7042 4.47324 15 4.6C15.3016 4.73312 15.6362 4.77282 15.9606 4.714C16.285 4.65519 16.5843 4.50054 16.82 4.27L16.88 4.21C17.0657 4.02405 17.2863 3.87653 17.5291 3.77588C17.7719 3.67523 18.0322 3.62343 18.295 3.62343C18.5578 3.62343 18.8181 3.67523 19.0609 3.77588C19.3037 3.87653 19.5243 4.02405 19.71 4.21C19.896 4.39575 20.0435 4.61632 20.1441 4.85912C20.2448 5.10192 20.2966 5.36217 20.2966 5.625C20.2966 5.88783 20.2448 6.14808 20.1441 6.39088C20.0435 6.63368 19.896 6.85425 19.71 7.04L19.65 7.1C19.4195 7.33568 19.2648 7.63502 19.206 7.95941C19.1472 8.28381 19.1869 8.61838 19.32 8.92V9C19.4468 9.29577 19.6572 9.54802 19.9255 9.72569C20.1938 9.90337 20.5082 9.99872 20.83 10H21C21.5304 10 22.0391 10.2107 22.4142 10.5858C22.7893 10.9609 23 11.4696 23 12C23 12.5304 22.7893 13.0391 22.4142 13.4142C22.0391 13.7893 21.5304 14 21 14H20.91C20.5882 14.0013 20.2738 14.0966 20.0055 14.2743C19.7372 14.452 19.5268 14.7042 19.4 15V15Z" stroke="#072D4B" stroke-width="2" stroke-linecap="round" stroke-linejoin="round"/></symbol><symbol viewBox="0 0 17 16" fill="none" id="svg-share"><path d="M3.40216 8V13.3333C3.40216 13.687 3.54542 14.0261 3.80043 14.2761 4.05544 14.5262 4.40131 14.6667 4.76195 14.6667H12.9207C13.2813 14.6667 13.6272 14.5262 13.8822 14.2761 14.1372 14.0261 14.2805 13.687 14.2805 13.3333V8M11.5609 4L8.84128 1.33333 6.1217 4M8.84131 1.33333V10" stroke="#0768B5" stroke-width="2" stroke-linecap="round" stroke-linejoin="round"/></symbol><symbol viewBox="0 0 19 19" fill="none" id="svg-thumbs-down"><path d="M13.4582 1.58329H15.572C16.02 1.57537 16.4554 1.73223 16.7954 2.02411C17.1355 2.31598 17.3565 2.72255 17.4166 3.16663V8.70829C17.3565 9.15237 17.1355 9.55894 16.7954 9.85081C16.4554 10.1427 16.02 10.2996 15.572 10.2916H13.4582M7.91657 11.875V15.0416C7.91657 15.6715 8.16679 16.2756 8.61219 16.721C9.05759 17.1664 9.66168 17.4166 10.2916 17.4166L13.4582 10.2916V1.58329H4.52824C4.14639 1.57898 3.77585 1.71281 3.48489 1.96012C3.19393 2.20744 3.00216 2.55158 2.9449 2.92913L1.8524 10.0541C1.81796 10.2811 1.83326 10.5128 1.89726 10.7332C1.96125 10.9536 2.0724 11.1575 2.22301 11.3307C2.37362 11.5039 2.56009 11.6423 2.76949 11.7362C2.97889 11.8302 3.20623 11.8776 3.43574 11.875H7.91657Z" stroke="#072D4B" stroke-width="2" stroke-linecap="round" stroke-linejoin="round"/></symbol><symbol viewBox="0 0 20 19" fill="none" id="svg-thumbs-up"><path d="M5.83341 17.4167H3.33341C2.89139 17.4167 2.46746 17.2499 2.1549 16.953C1.84234 16.656 1.66675 16.2533 1.66675 15.8334V10.2917C1.66675 9.87178 1.84234 9.46905 2.1549 9.17212C2.46746 8.87519 2.89139 8.70837 3.33341 8.70837H5.83341M11.6667 7.12504V3.95837C11.6667 3.32848 11.4034 2.72439 10.9345 2.279C10.4657 1.8336 9.82979 1.58337 9.16675 1.58337L5.83341 8.70837V17.4167H15.2334C15.6354 17.421 16.0254 17.2872 16.3317 17.0399C16.6379 16.7926 16.8398 16.4484 16.9001 16.0709L18.0501 8.94587C18.0863 8.71895 18.0702 8.48725 18.0029 8.26682C17.9355 8.0464 17.8185 7.84252 17.66 7.66932C17.5014 7.49612 17.3051 7.35774 17.0847 7.26375C16.8643 7.16977 16.625 7.12244 16.3834 7.12504H11.6667Z" stroke="#072D4B" stroke-width="2" stroke-linecap="round" stroke-linejoin="round"/></symbol><symbol viewBox="0 0 20 20" fill="none" id="svg-trash"><path d="M2.5 5H4.16667 17.5M6.66675 4.99996V3.33329C6.66675 2.89127 6.84234 2.46734 7.1549 2.15478 7.46746 1.84222 7.89139 1.66663 8.33341 1.66663H11.6667C12.1088 1.66663 12.5327 1.84222 12.8453 2.15478 13.1578 2.46734 13.3334 2.89127 13.3334 3.33329V4.99996M15.8334 4.99996V16.6666C15.8334 17.1087 15.6578 17.5326 15.3453 17.8451 15.0327 18.1577 14.6088 18.3333 14.1667 18.3333H5.83341C5.39139 18.3333 4.96746 18.1577 4.6549 17.8451 4.34234 17.5326 4.16675 17.1087 4.16675 16.6666V4.99996H15.8334z" stroke="#FF8C8C" stroke-width="2" stroke-linecap="round" stroke-linejoin="round"/></symbol><symbol viewBox="0 0 24 24" fill="none" id="svg-user"><path d="M20 21V19C20 17.9391 19.5786 16.9217 18.8284 16.1716 18.0783 15.4214 17.0609 15 16 15H8C6.93913 15 5.92172 15.4214 5.17157 16.1716 4.42143 16.9217 4 17.9391 4 19V21M12 11C14.2091 11 16 9.20914 16 7 16 4.79086 14.2091 3 12 3 9.79086 3 8 4.79086 8 7 8 9.20914 9.79086 11 12 11z" stroke="#072D4B" stroke-width="2" stroke-linecap="round" stroke-linejoin="round"/></symbol></svg>